<svg xmlns="http://www.w3.org/2000/svg" viewBox="90 60 375 340" role="img" aria-labelledby="title desc">
  <title id="title">MASFY Gateway Icon</title>
  <desc id="desc">Vector gateway and road icon from the MASFY logo.</desc>
  <defs>
    <style>
      .dark { fill: #3f3f43; }
      .orange { fill: #f9ad13; }
    </style>
  </defs>
  <path class="orange" d="M163 124 L238 70 L281 102 L324 70 L398 124 L398 338 L370 338 L370 149 L317 110 L282 136 L244 110 L191 149 L191 338 L163 338 Z"/>
  <path class="dark" d="M199 157 L244 121 L306 168 L306 326 L255 291 L255 168 L199 327 Z"/>
  <path class="dark" d="M363 157 L318 121 L255 168 L255 326 L306 291 L306 168 L363 327 Z"/>
  <path class="dark" d="M102 382 L255 291 L244 328 L145 382 Z"/>
  <path class="dark" d="M452 382 L306 291 L316 328 L410 382 Z"/>
  <path class="dark" d="M249 382 L272 288 L287 288 L311 382 Z"/>
  <path fill="#fff" d="M266 311 L293 311 L297 338 L261 338 Z"/>
  <path fill="#fff" d="M257 351 L301 351 L306 382 L250 382 Z"/>
</svg>
